<?xml version="1.0" encoding="utf-8"?>
<!-- Generator: Adobe Illustrator 22.1.0, SVG Export Plug-In . SVG Version: 6.00 Build 0)  -->
<svg version="1.1" id="Camada_1" xmlns="http://www.w3.org/2000/svg" xmlns:xlink="http://www.w3.org/1999/xlink" x="0px" y="0px"
	 viewBox="0 0 313 120" style="enable-background:new 0 0 313 120;" xml:space="preserve">
<style type="text/css">
	.st0{fill:#00B9DB;}
	.st1{fill:#005EAB;}
	.st2{fill:#003F7A;}
	.st3{fill:#008ECF;}
	.st4{fill:#6F7071;}
	.st5{fill:#00B0DA;}
</style>
<g>
	<g>
		<polygon class="st0" points="248.5,0 173.3,31.4 195.4,39.1 		"/>
		<polygon class="st1" points="248.5,0 200.7,56.9 195.4,39.1 		"/>
		<polygon class="st2" points="248.5,0 200.7,56.9 200.7,42 		"/>
		<polygon class="st0" points="248.5,0 232.4,59.3 200.7,42 		"/>
		<polygon class="st3" points="215.7,28.8 232.4,59.3 200.7,42 		"/>
		<polygon class="st3" points="213,26.1 173.3,31.4 195.4,39.1 		"/>
		<g>
			<path class="st4" d="M202.5,66.3v49.2h29.9v3.9h-34V66.3L202.5,66.3L202.5,66.3z"/>
			<path class="st4" d="M269.1,81.9c0,12.5,0,25,0,37.5h-3.7v-8c-3.6,5.9-9.3,8.6-15.3,8.6c-10.5,0-19.1-7.9-19.1-19.4
				c0-11.5,8.6-19.2,19.1-19.2c6.1,0,12.2,2.8,15.3,8.6v-8.2L269.1,81.9L269.1,81.9z M234.8,100.6c0,9.4,6.8,15.7,15.3,15.7
				c20.9,0,20.9-31.3,0-31.3C241.6,85,234.8,91.2,234.8,100.6z"/>
			<path class="st4" d="M278.3,66.3v23.8c3-6.1,9.1-8.8,15.6-8.8c10.5,0,18.8,7,18.8,19.4c0,12.4-8.3,19.4-18.7,19.4
				c-6.4,0-12.5-3.2-15.6-8.9v8.3h-3.6V66.3L278.3,66.3L278.3,66.3z M278.4,100.6c0,9.3,6.5,15.8,15.3,15.8
				c8.4,0,15.3-5.3,15.3-15.7c0-10.6-6.9-15.8-15.3-15.8C285.1,84.8,278.4,91.2,278.4,100.6z"/>
		</g>
	</g>
	<g>
		<path class="st5" d="M20.5,67.1L0.3,118.4l0,0h10.2l3.8-9.8h23.5l3.8,9.8h10.2L31.7,67.1L20.5,67.1L20.5,67.1z M16.8,100.6
			l9.2-24.4l9.3,24.4H16.8z"/>
		<path class="st5" d="M73.4,67.1l-20.2,51.3h10.2l3.8-9.8h23.5l3.8,9.8h10.2L84.6,67.1L73.4,67.1L73.4,67.1z M69.7,100.6l9.2-24.4
			l9.3,24.4H69.7z"/>
		<path class="st5" d="M142.1,94c-1.1-1-2.5-2-4-2.8c-1.5-0.8-3.1-1.5-4.7-1.9c-1.7-0.5-3.3-0.9-5-1.4c-1.6-0.5-3.2-0.9-4.7-1.3
			c-1.5-0.4-2.8-0.9-4-1.4c-1.1-0.5-2.1-1.1-2.8-1.9c-0.7-0.8-1-1.7-1-2.7c0-1.9,0.8-3.5,2.4-4.7c1.6-1.2,3.7-1.8,6.3-1.8
			c2.8,0,5.5,0.5,8.1,1.5c2.6,1,4.9,2.4,6.8,4.4l5.2-6.7c-4.9-4.7-11.4-7.1-19.3-7.1c-5.5,0-10,1.4-13.5,4.3
			c-3.5,2.9-5.2,6.4-5.2,10.7c0,2,0.4,3.8,1,5.4c0.7,1.6,1.6,2.9,2.8,3.9c1.1,1,2.5,1.9,4,2.7c1.5,0.8,3.1,1.4,4.7,1.8
			c1.7,0.5,3.3,0.9,5,1.4c1.6,0.5,3.2,0.9,4.7,1.3c1.5,0.4,2.8,0.9,4,1.5c1.1,0.5,2.1,1.2,2.8,2.1c0.7,0.9,1,1.9,1,3
			c0,1.9-0.9,3.6-2.6,5s-4.3,2.1-7.7,2.1c-3.3,0-6.4-0.7-9.1-2c-2.8-1.3-5.1-3-7.1-5.1l-5,6.9c5.1,5.4,12.1,8.1,20.8,8.1
			c3.4,0,6.4-0.4,9-1.3c2.6-0.8,4.7-2,6.3-3.5c1.6-1.5,2.8-3.1,3.6-5s1.2-3.9,1.2-6.1c0-2.1-0.3-3.9-1-5.5
			C144.2,96.4,143.3,95.1,142.1,94z"/>
		<path class="st5" d="M185.9,71.7c-3-3.1-7.1-4.6-12.3-4.6H151v51.3h9V99.2h13.5c5.1,0,9.3-1.5,12.3-4.6c3-3.1,4.5-6.9,4.5-11.4
			C190.4,78.6,188.9,74.8,185.9,71.7z M178.7,89.1c-1.6,1.5-3.7,2.2-6.3,2.2h-12.3V75.1h12.3c2.6,0,4.7,0.7,6.3,2.2
			c1.6,1.5,2.4,3.5,2.4,5.9C181.1,85.6,180.3,87.6,178.7,89.1z"/>
	</g>
</g>
</svg>
