<?xml version="1.0" encoding="utf-8"?>
<!-- Generator: Adobe Illustrator 22.1.0, SVG Export Plug-In . SVG Version: 6.00 Build 0)  -->
<svg version="1.1" id="Camada_1" xmlns="http://www.w3.org/2000/svg" xmlns:xlink="http://www.w3.org/1999/xlink" x="0px" y="0px"
	 viewBox="0 0 60 60" style="enable-background:new 0 0 60 60;" xml:space="preserve">
<style type="text/css">
	.st0{fill:#88C8D3;}
	.st1{fill:#ECF0F1;}
	.st2{fill:#FFFFFF;}
	.st3{fill:#EA4444;}
	.st4{fill:#FFA31D;}
	.st5{fill:#666666;}
	.st6{fill:#36D8C8;}
</style>
<g>
	<g>
		<path class="st0" d="M10.3,27.8c1,3.5,0,7.9-2.8,11.7c0.5,0.3,1,0.6,1.4,1c1.2,1.2,1.9,2.8,1.9,4.6c2.5-2.1,5.8-2.4,7.7-0.7
			c0.2,0.2,0.4,0.5,0.6,0.7c0.3,0.2,0.5,0.3,0.8,0.6c1.9,1.8,1.7,5.1-0.2,7.7c1.8-0.1,3.5,0.4,4.7,1.6c0.4,0.4,0.8,0.9,1.1,1.4
			c3.6-3,7.9-4.3,11.5-3.5c5.1-3.4,10.9-4.6,15.7-3.3C57.2,44.4,60,37.5,60,30C60,13.4,46.6,0,30,0c-7.6,0-14.6,2.8-19.9,7.5
			C14.7,12.5,14.6,20.7,10.3,27.8z"/>
		<polygon class="st1" points="9.5,6.9 9.5,6.9 9.5,6.9 		"/>
		<path class="st1" d="M0,30c0,16.6,13.4,30,30,30c9,0,17.1-4,22.6-10.3C47.9,48.4,42.1,49.6,37,53c-3.6-0.8-7.9,0.4-11.5,3.5
			c-0.3-0.5-0.6-1-1.1-1.4c-1.2-1.2-2.9-1.7-4.7-1.6c2-2.6,2.1-5.9,0.2-7.7c-0.2-0.2-0.5-0.4-0.8-0.6c-0.2-0.3-0.4-0.5-0.6-0.7
			c-1.9-1.8-5.2-1.4-7.7,0.7c0-1.8-0.6-3.4-1.9-4.6c-0.4-0.4-0.9-0.7-1.4-1c2.8-3.7,3.8-8.1,2.8-11.7c4.2-7.2,4.3-15.4-0.2-20.3
			C3.9,13,0,21.1,0,30z"/>
	</g>
	<g>
		<g>
			<path class="st2" d="M34.4,26.2c0.1-0.1-0.6,2.1-1.2,3c-0.6,0.8-1.4,1.7-1.4,1.7l0.2-0.9l-2.1,2l0-0.8c0,0-0.9,0.6-1.9,1.1
				c-1,0.5-1,0.5-0.6-0.6c0.4-1.1,0.9-2,0.9-2l-0.8,0.1l1.9-2.3l-0.9,0.3c0,0,0.8-0.8,1.6-1.5c0.8-0.6,3-1.6,2.9-1.4l0.7,0.7
				L34.4,26.2L34.4,26.2L34.4,26.2L34.4,26.2z"/>
		</g>
		<g>
			<path class="st3" d="M39.9,22.6l1.1,4.2l-5.3,6l0.3-7.3L39.9,22.6C39.9,22.6,39.9,22.6,39.9,22.6z"/>
			<path class="st3" d="M36.2,19.2L32,18.3l-5.6,5.8l7.2-0.9L36.2,19.2L36.2,19.2z"/>
		</g>
		<path class="st4" d="M35.8,26.7l-1.7-1.6l-1.7-1.6c3.2-3.8,7.4-20.8,21.8-20.1C56.7,17.5,39.1,23.5,35.8,26.7z"/>
		<path class="st3" d="M54.1,9.4c-2.1-0.9-4.6-3.2-5.6-5.2c1.7-0.6,3.6-0.9,5.8-0.7C54.6,5.6,54.5,7.6,54.1,9.4L54.1,9.4z"/>
		<rect x="32.8" y="23.3" transform="matrix(0.6808 -0.7325 0.7325 0.6808 -8.046 32.8032)" class="st5" width="1.6" height="4.6"/>
		<circle class="st2" cx="46.8" cy="11.8" r="2.6"/>
		<circle class="st6" cx="46.8" cy="11.8" r="2.1"/>
		<g>
			<path class="st2" d="M26.4,29c-2.7,1.9-7.3,15.2,3.3,22.3c0,0-8.1-9.4-0.5-18.5C27.9,33.4,25.4,35.6,26.4,29z"/>
			<circle class="st2" cx="23.6" cy="49" r="1.5"/>
			<circle class="st2" cx="28.4" cy="44.6" r="0.5"/>
			<circle class="st2" cx="20.3" cy="40.6" r="0.7"/>
			<circle class="st2" cx="30.7" cy="48.5" r="0.7"/>
		</g>
	</g>
</g>
</svg>
