<?xml version="1.0" encoding="utf-8"?>
<!-- Generator: Adobe Illustrator 22.1.0, SVG Export Plug-In . SVG Version: 6.00 Build 0)  -->
<svg version="1.1" id="Camada_1" xmlns="http://www.w3.org/2000/svg" xmlns:xlink="http://www.w3.org/1999/xlink" x="0px" y="0px"
	 viewBox="0 0 1584 1080" style="enable-background:new 0 0 1584 1080;" xml:space="preserve">
<style type="text/css">
	.st0{fill:#FFFFFF;}
	.st1{fill:#9A9B9C;}
	.st2{fill:#6F7071;}
	.st3{fill:#D7D8D9;}
</style>
<g>
	<polygon class="st0" points="1106.9,7.5 563.4,234.5 722.8,290.1 	"/>
	<polygon class="st1" points="1106.9,7.5 761.5,418.9 722.8,290.1 	"/>
	<polygon class="st2" points="1106.9,7.5 761.5,418.9 761.5,311 	"/>
	<polygon class="st0" points="1106.9,7.5 991,435.8 761.5,311 	"/>
	<polygon class="st3" points="869.8,215.8 991,435.8 761.5,311 	"/>
	<polygon class="st3" points="850.3,196.3 563.4,234.5 722.8,290.1 	"/>
	<path class="st0" d="M456.6,802.9V770c0-41.7,51.5-49.9,83.3-49.9c80.6,0,154.1-18.6,154.1-116.2c0-91-83.3-122.3-160.1-122.3
		c-70.7,0-147.5,35.1-148,116.2h71.8c0.5-34.5,39.5-53.7,77.3-53.7c49.3,0,87.2,19.7,87.2,61.4c0,44.4-53.2,49.4-82.2,49.4
		c-71.6,0-147.1,23.6-155,100.9L264.1,486.5h-79L13,870.4h78.4l32.9-72.4H325l32.4,72.4h26.9h52.1h258.8v-67.4H456.6z M153.4,730.5
		l71.3-163.4l71.3,163.4H153.4z"/>
	<g>
		<path class="st0" d="M774.3,486.5v355.9h216.1v28H744.7V486.5H774.3z"/>
		<path class="st0" d="M1256.2,599.5c0,90.5,0,180.4,0,270.9h-26.9v-57.6c-26.3,42.2-66.9,62-110.8,62c-75.7,0-137.6-57-137.6-139.8
			c0-82.8,62-138.7,137.6-138.7c43.9,0,88.3,20.3,110.8,62.5v-59.2H1256.2z M1007.8,734.9c0,68,49.4,113.5,110.8,113.5
			c150.8,0,150.8-226.5,0-226.5C1057.2,621.9,1007.8,666.9,1007.8,734.9z"/>
		<path class="st0" d="M1322.6,486.5v172.2c21.9-43.9,65.8-63.6,112.4-63.6c75.7,0,136,50.5,136,139.8
			c0,89.9-59.8,139.8-135.4,139.8c-46.1,0-90.5-23-113-64.2v59.8h-26.3V486.5H1322.6z M1323.1,734.4c0,67.5,47.2,114.1,110.8,114.1
			c60.9,0,110.8-38.4,110.8-113.5c0-76.2-49.9-114.1-110.8-114.1C1371.4,620.8,1323.1,666.9,1323.1,734.4z"/>
	</g>
	<g>
		<path class="st0" d="M1157.1,1027.7l-14.1,42.6h-18.1l46.3-135.5h20.9l46.3,135.5h-18.7l-14.5-42.6H1157.1z M1201.7,1014l-13.5-39
			c-3-8.8-5-16.9-7-24.7h-0.4c-2,7.8-4,16.3-6.8,24.5l-13.3,39.2H1201.7z"/>
		<path class="st0" d="M1280.2,1027.7l-14.1,42.6H1248l46.3-135.5h20.9l46.3,135.5h-18.7l-14.5-42.6H1280.2z M1324.8,1014l-13.5-39
			c-3-8.8-5-16.9-7-24.7h-0.4c-2,7.8-4,16.3-6.8,24.5l-13.3,39.2H1324.8z"/>
		<path class="st0" d="M1379.2,1049c7.8,5,19.1,8.8,31.2,8.8c17.9,0,28.4-9.5,28.4-23.1c0-12.5-7.2-19.9-25.5-26.7
			c-22.1-8-35.8-19.7-35.8-38.6c0-21.1,17.5-36.8,43.8-36.8c13.7,0,23.9,3.2,29.8,6.6l-4.8,14.3c-4.2-2.6-13.3-6.4-25.5-6.4
			c-18.5,0-25.5,11.1-25.5,20.3c0,12.7,8.2,18.9,26.9,26.1c22.9,8.8,34.4,19.9,34.4,39.8c0,20.9-15.3,39.2-47.3,39.2
			c-13.1,0-27.4-4-34.6-8.8L1379.2,1049z"/>
		<path class="st0" d="M1480.5,936.4c8.4-1.4,19.5-2.6,33.6-2.6c17.3,0,30,4,38,11.3c7.2,6.4,11.9,16.3,11.9,28.4
			c0,12.3-3.6,21.9-10.5,29c-9.5,9.9-24.3,14.9-41.4,14.9c-5.2,0-10.1-0.2-14.1-1.2v54.3h-17.5V936.4z M1498,1001.7
			c3.8,1,8.6,1.4,14.5,1.4c21.1,0,34-10.5,34-28.8c0-18.1-12.9-26.7-32-26.7c-7.6,0-13.5,0.6-16.5,1.4V1001.7z"/>
	</g>
</g>
</svg>
