<?xml version="1.0" encoding="utf-8"?>
<!-- Generator: Adobe Illustrator 22.1.0, SVG Export Plug-In . SVG Version: 6.00 Build 0)  -->
<svg version="1.1" id="Camada_1" xmlns="http://www.w3.org/2000/svg" xmlns:xlink="http://www.w3.org/1999/xlink" x="0px" y="0px"
	 viewBox="0 0 51 29" style="enable-background:new 0 0 51 29;" xml:space="preserve">
<style type="text/css">
	.st0{fill:#FFFFFF;}
	.st1{fill:#9A9B9C;}
	.st2{fill:#6F7071;}
	.st3{fill:#D7D8D9;}
</style>
<g>
	<polygon class="st0" points="35.8,0.3 18,7.7 23.2,9.6 	"/>
	<polygon class="st1" points="35.8,0.3 24.5,13.8 23.2,9.6 	"/>
	<polygon class="st2" points="35.8,0.3 24.5,13.8 24.5,10.2 	"/>
	<polygon class="st0" points="35.8,0.3 32,14.3 24.5,10.2 	"/>
	<polygon class="st3" points="28,7.1 32,14.3 24.5,10.2 	"/>
	<polygon class="st3" points="27.4,6.5 18,7.7 23.2,9.6 	"/>
	<path class="st0" d="M14.5,26.3v-1.1c0-1.4,1.7-1.6,2.7-1.6c2.6,0,5-0.6,5-3.8c0-3-2.7-4-5.2-4c-2.3,0-4.8,1.1-4.8,3.8h2.4
		c0-1.1,1.3-1.8,2.5-1.8c1.6,0,2.9,0.6,2.9,2c0,1.5-1.7,1.6-2.7,1.6c-2.3,0-4.8,0.8-5.1,3.3l-4-8.8H5.6L0,28.6h2.6l1.1-2.4h6.6
		l1.1,2.4h0.9h1.7h8.5v-2.2H14.5z M4.6,24l2.3-5.3L9.3,24H4.6z"/>
	<g>
		<path class="st0" d="M24.9,16v11.6H32v0.9h-8V16H24.9z"/>
		<path class="st0" d="M40.7,19.7c0,3,0,5.9,0,8.9h-0.9v-1.9c-0.9,1.4-2.2,2-3.6,2c-2.5,0-4.5-1.9-4.5-4.6c0-2.7,2-4.5,4.5-4.5
			c1.4,0,2.9,0.7,3.6,2v-1.9H40.7z M32.6,24.1c0,2.2,1.6,3.7,3.6,3.7c4.9,0,4.9-7.4,0-7.4C34.2,20.4,32.6,21.9,32.6,24.1z"/>
		<path class="st0" d="M42.9,16v5.6c0.7-1.4,2.2-2.1,3.7-2.1c2.5,0,4.5,1.7,4.5,4.6c0,2.9-2,4.6-4.4,4.6c-1.5,0-3-0.8-3.7-2.1v2H42
			V16H42.9z M42.9,24.1c0,2.2,1.5,3.7,3.6,3.7c2,0,3.6-1.3,3.6-3.7c0-2.5-1.6-3.7-3.6-3.7C44.5,20.4,42.9,21.9,42.9,24.1z"/>
	</g>
</g>
</svg>
