<?xml version="1.0" encoding="utf-8"?>
<!-- Generator: Adobe Illustrator 22.1.0, SVG Export Plug-In . SVG Version: 6.00 Build 0)  -->
<svg version="1.1" id="Camada_1" xmlns="http://www.w3.org/2000/svg" xmlns:xlink="http://www.w3.org/1999/xlink" x="0px" y="0px"
	 viewBox="0 0 62 18" style="enable-background:new 0 0 62 18;" xml:space="preserve">
<style type="text/css">
	.st0{fill:#FFFFFF;}
	.st1{fill:#333333;}
</style>
<g>
	<g>
		<path class="st0" d="M22.6,13.4h1l1.2-3.5h3.9l1.3,3.5h1.5l-4-10.5h-2.7v0.3C25.6,3.4,26,3.5,26,3.9c0,0.2-0.1,0.6-0.2,0.8
			L22.6,13.4z M26.8,4.6l1.8,4.8H25L26.8,4.6z"/>
		<path class="st0" d="M33.5,13.4h1l1.2-3.5h3.9l1.3,3.5h1.5l-4-10.5h-2.7v0.3C36.6,3.4,37,3.5,37,3.9c0,0.2-0.1,0.6-0.2,0.8
			L33.5,13.4z M37.7,4.6l1.8,4.8H36L37.7,4.6z"/>
		<path d="M50.8,3c-0.5-0.1-1.3-0.2-2.3-0.2c-2.1,0-3.4,0.9-3.4,2.6c0,3.3,5,2.9,5,5.5c0,1.3-0.8,2-2.2,2c-1.1,0-2.1-0.4-2.7-0.7
			v1.1c0.3,0.1,1.4,0.3,2.5,0.3c2,0,3.8-0.9,3.8-3c0-3.4-5.2-3.1-5.2-5.6c0-1,0.8-1.6,1.9-1.6c1.1,0,2.1,0.4,2.6,0.6L50.8,3L50.8,3z
			"/>
		<path d="M55.5,13.4h1.4V8.4h0.7c1.9,0,4.4,0,4.4-2.7c0-2.7-2.4-2.7-4.3-2.7H54v0.3c1.3,0.2,1.6,0.4,1.6,1.4L55.5,13.4L55.5,13.4z
			 M56.9,4.6c0-0.9,0.1-1,1.3-1c1.4,0,2.2,0.6,2.2,2.1c0,2-1.5,2.1-2.9,2.1h-0.7L56.9,4.6L56.9,4.6z"/>
	</g>
	<g>
		<path class="st0" d="M0,9c0-4.9,4-8.8,8.8-8.8c4.9,0,8.8,4,8.8,8.8c0,4.9-4,8.8-8.8,8.8C4,17.8,0,13.9,0,9z"/>
		<polygon class="st1" points="8.8,0.2 16.5,13.3 9.5,13.3 12.2,8.6 12.8,9.7 11.3,12.2 14.6,12.2 9.5,3.5 9.5,13 8.8,13.6 8.2,13 
			8.2,3.5 3.1,12.2 6.4,12.2 4.8,9.7 5.5,8.6 8.2,13.3 1.2,13.3 		"/>
	</g>
</g>
</svg>
