<?xml version="1.0" encoding="utf-8"?>
<!-- Generator: Adobe Illustrator 22.1.0, SVG Export Plug-In . SVG Version: 6.00 Build 0)  -->
<svg version="1.1" id="Camada_1" xmlns="http://www.w3.org/2000/svg" xmlns:xlink="http://www.w3.org/1999/xlink" x="0px" y="0px"
	 viewBox="0 0 25 25" style="enable-background:new 0 0 25 25;" xml:space="preserve">
<style type="text/css">
	.st0{fill:#FFFFFF;}
</style>
<path class="st0" d="M12.7,0C5.8,0,0.1,5.7,0,12.8C-0.1,18.5,3.4,23.3,8.3,25c0.6,0.1,0.8-0.3,0.8-0.6c0-0.3,0-1.1,0-2.2
	C5.7,22.9,5,20.5,5,20.5c-0.5-1.5-1.4-1.9-1.4-1.9c-1.1-0.8,0.1-0.8,0.1-0.8c1.2,0.1,1.9,1.3,1.9,1.3c1.1,1.9,2.9,1.4,3.6,1.1
	c0.1-0.8,0.5-1.4,0.8-1.7c-2.8-0.3-5.7-1.4-5.6-6.3c0-1.4,0.5-2.6,1.3-3.5C5.8,8.4,5.3,7,6.1,5.3c0,0,1.1-0.3,3.4,1.3
	c1-0.3,2.1-0.4,3.1-0.4s2.1,0.1,3.1,0.4c2.4-1.7,3.5-1.3,3.5-1.3c0.7,1.7,0.2,3.1,0.1,3.4c0.8,0.9,1.3,2,1.2,3.5
	c-0.1,4.9-3,6-5.8,6.3c0.4,0.4,0.8,1.2,0.8,2.4c0,1.7-0.1,3.1-0.1,3.5c0,0.3,0.2,0.8,0.8,0.6c5-1.7,8.6-6.5,8.7-12.2
	C25.1,5.7,19.6,0,12.7,0z"/>
</svg>
