<?xml version="1.0" encoding="utf-8"?>
<!-- Generator: Adobe Illustrator 22.1.0, SVG Export Plug-In . SVG Version: 6.00 Build 0)  -->
<svg version="1.1" id="Camada_1" xmlns="http://www.w3.org/2000/svg" xmlns:xlink="http://www.w3.org/1999/xlink" x="0px" y="0px"
	 viewBox="0 0 60 60" style="enable-background:new 0 0 60 60;" xml:space="preserve">
<style type="text/css">
	.st0{fill:#88C8D3;}
	.st1{fill:#FFBA1B;}
	.st2{fill:#F9C050;}
	.st3{fill:#F5A209;}
	.st4{fill:#DDA94E;}
	.st5{fill:#FECD0D;}
	.st6{fill:#FFFFFF;}
</style>
<g>
	<path class="st0" d="M30,60c16.5,0,30-13.5,30-30S46.5,0,30,0C13.5,0,0,13.5,0,30S13.5,60,30,60z"/>
	<path class="st1" d="M55.1,6L13.5,20.3l12.7,2.5L55.1,6L55.1,6z"/>
	<path class="st2" d="M13.5,20.3l12.7,2.5l8.4-4.9L13.5,20.3z"/>
	<path class="st3" d="M26.2,22.9l2,15L55.1,6L26.2,22.9z"/>
	<path class="st4" d="M26.2,22.9l2,15l12.1-14.2l-2.1-3.4L34,23.6l0.6-5.7h0L26.2,22.9L26.2,22.9L26.2,22.9z"/>
	<path class="st5" d="M55.1,6L30.7,26.4l-2.6,11.4L55.1,6z"/>
	<path class="st2" d="M34,23.6l-3.3,2.7l-2.6,11.4l12.1-14.2l-2.1-3.4L34,23.6L34,23.6L34,23.6z"/>
	<path class="st1" d="M46.8,34.4L55.1,6L30.7,26.4L46.8,34.4L46.8,34.4z"/>
	<path class="st2" d="M34,23.6l-3.3,2.7l16.1,8l-8.7-14.2L34,23.6L34,23.6L34,23.6z"/>
	<path class="st6" d="M5.4,42l16.9-16.4l0.7,1L5.4,42z M25.2,53.5L25.2,53.5L40.4,36l1.1,0.5L25.2,53.5z M12.4,51.8L12.4,51.8
		L26.7,39l-0.8-0.7L12.4,51.8z"/>
</g>
</svg>
