<?xml version="1.0" encoding="utf-8"?>
<!-- Generator: Adobe Illustrator 22.1.0, SVG Export Plug-In . SVG Version: 6.00 Build 0)  -->
<svg version="1.1" id="Camada_1" xmlns="http://www.w3.org/2000/svg" xmlns:xlink="http://www.w3.org/1999/xlink" x="0px" y="0px"
	 viewBox="0 0 25 25" style="enable-background:new 0 0 25 25;" xml:space="preserve">
<style type="text/css">
	.st0{fill:#FFFFFF;}
</style>
<g>
	<path class="st0" d="M7.3,0h10.5c4,0,7.2,3.3,7.2,7.3v10.5c0,4-3.2,7.2-7.2,7.2H7.3c-4,0-7.3-3.3-7.3-7.2V7.3C0,3.2,3.2,0,7.3,0
		 M7,2.5c-2.5,0-4.5,2-4.5,4.5l0,0v11c0,2.5,2,4.5,4.5,4.5h11c2.5,0,4.5-2,4.5-4.5v0V7c0-2.5-2-4.5-4.5-4.5H7 M19.1,4.4
		c0.9,0,1.6,0.7,1.6,1.6s-0.7,1.6-1.6,1.6s-1.6-0.7-1.6-1.6S18.2,4.4,19.1,4.4 M12.5,6.3c3.5,0,6.3,2.8,6.3,6.3s-2.8,6.3-6.3,6.3
		S6.3,16,6.3,12.5S9,6.3,12.5,6.3 M12.5,8.8c-2.1,0-3.8,1.7-3.8,3.8s1.7,3.8,3.8,3.8s3.8-1.7,3.8-3.8S14.6,8.8,12.5,8.8z"/>
</g>
</svg>
