<?xml version="1.0" encoding="utf-8"?>
<!-- Generator: Adobe Illustrator 22.1.0, SVG Export Plug-In . SVG Version: 6.00 Build 0)  -->
<svg version="1.1" id="Camada_1" xmlns="http://www.w3.org/2000/svg" xmlns:xlink="http://www.w3.org/1999/xlink" x="0px" y="0px"
	 viewBox="0 0 60 60" style="enable-background:new 0 0 60 60;" xml:space="preserve">
<style type="text/css">
	.st0{fill:#88C8D3;}
	.st1{fill:#725608;}
	.st2{fill:#CE9921;}
	.st3{fill:#725908;}
	.st4{fill:#FFFFFF;}
	.st5{fill:#84680F;}
	.st6{fill:#0F5A84;}
	.st7{fill:#ECF0F1;}
	.st8{fill:#93711C;}
</style>
<g>
	<path class="st0" d="M30,60c16.5,0,30-13.5,30-30S46.5,0,30,0C13.5,0,0,13.5,0,30S13.5,60,30,60z"/>
	<path class="st1" d="M43.6,29.4L57,43.1c-0.6,1.3-1.4,2.6-2.2,3.7L40.6,32.3c-0.4-0.4-0.4-1.1,0-1.5l1.4-1.4
		C42.5,29,43.2,29,43.6,29.4L43.6,29.4L43.6,29.4z"/>
	<path class="st1" d="M46.4,25.6c-0.1,0.1-0.1,0.2-0.2,0.3l-0.8,1l0.1,0.1c0.3,0.4,0.3,0.9,0,1.3l-5.9,5.8c-0.4,0.3-0.9,0.3-1.3,0
		l-0.1-0.1l-1,0.8c-0.1,0.1-0.2,0.1-0.3,0.2c0.1,0.3,0.1,0.7-0.2,1l0,0c-0.3,0.3-0.9,0.3-1.3,0l-5.4-5.6c-0.3-0.3-0.3-0.9,0-1.3v0
		c0.3-0.3,0.7-0.3,1-0.2c0.1-0.1,0.1-0.2,0.2-0.3l0.8-1l-0.1-0.1c-0.3-0.4-0.3-0.9,0-1.3l5.9-5.8c0.4-0.3,0.9-0.3,1.3,0l0.1,0.1
		l1-0.8c0.1-0.1,0.2-0.2,0.3-0.2c-0.2-0.3-0.1-0.7,0.2-1l0,0c0.3-0.3,0.9-0.3,1.3,0l5.4,5.6c0.3,0.3,0.3,0.9,0,1.3l0,0
		C47.1,25.7,46.7,25.7,46.4,25.6L46.4,25.6z"/>
	<path class="st2" d="M44.8,28.8l-0.3,0.3l-7.6-7.8l0.3-0.3L44.8,28.8z M40.4,33.2L40.4,33.2l-7.6-7.8l-0.3,0.3l7.6,7.8L40.4,33.2
		L40.4,33.2L40.4,33.2z"/>
	<path class="st3" d="M26.5,3.1v6.1v20.4H5.3c-1.5,0-2.8,1.4-2.8,3.1V6.2c0-1.7,1.3-3.1,2.8-3.1L26.5,3.1z M2.5,32.9L2.5,32.9
		L2.5,32.9c0-0.1,0-0.1,0-0.2V32.9z"/>
	<path class="st2" d="M5.3,29.7h21.2c-1.1,2-1.1,4,0,6.1H5.3c-1.5,0-2.8-1.4-2.8-3.1C2.5,31,3.7,29.7,5.3,29.7z"/>
	<path class="st4" d="M26.2,35.1c-0.6-1.5-0.5-3.1,0-4.8H5.8c-1.3,0-2.4,1.1-2.4,2.4c0,1.3,1.1,2.4,2.4,2.4H26.2z"/>
	<path class="st5" d="M6.4,4.6h18.7v23.5H6.4V4.6z"/>
	<path class="st6" d="M23.8,38.1l-2.3-1.4l-1.6,1.4v-5.8h3.9L23.8,38.1L23.8,38.1z"/>
	<g>
		<path class="st7" d="M11.7,14.8h9.5v0.8h-9.5L11.7,14.8z"/>
		<path class="st7" d="M11.7,17.1h9.5V18h-9.5L11.7,17.1z"/>
		<path class="st7" d="M11.7,19.4h6.8v0.8h-6.8L11.7,19.4z"/>
	</g>
	<path class="st1" d="M21.5,48.7h20.7v-2.9H21.5V48.7z"/>
	<path class="st8" d="M23.4,44.1h17.1c0.5,0,0.8,0.4,0.8,0.8v0.8H22.5v-0.8C22.5,44.5,22.9,44.1,23.4,44.1L23.4,44.1z"/>
	<g>
		<path class="st4" d="M44.5,29.2l-7.6-7.8l-4.1,4l7.6,7.8l0.8-0.8l2.6-2.5L44.5,29.2z"/>
		<path class="st4" d="M47.2,23c1-1,2.2-1.8,3.5-2.4c1.3-0.6,2.7-1,4.1-1.2l0,0.3c-1.4,0.2-2.7,0.5-4,1.1c-1.2,0.6-2.4,1.3-3.4,2.3
			L47.2,23L47.2,23L47.2,23z M43.1,18L43.1,18c1-1,2.2-1.8,3.5-2.4c1.3-0.6,2.7-1,4.1-1.2l0,0.3c-1.4,0.2-2.7,0.5-4,1.1
			c-1.2,0.6-2.4,1.3-3.4,2.3L43.1,18z M48.5,16.5L48.5,16.5l-0.1-0.3c-0.8,0.3-1.6,0.6-2.3,1c-0.7,0.4-1.4,0.9-2,1.5l0.2,0.2
			c0.6-0.6,1.3-1.1,2-1.5C47,17.1,47.7,16.8,48.5,16.5L48.5,16.5z M52.5,21.5L52.5,21.5l-0.1-0.3c-0.8,0.3-1.6,0.6-2.3,1
			c-0.7,0.4-1.4,0.9-2,1.5l0.2,0.2c0.6-0.6,1.3-1.1,2-1.5C51,22.1,51.7,21.8,52.5,21.5z"/>
	</g>
</g>
</svg>
